<svg class="rich-terminal" viewBox="0 0 1482 1026.0" xmlns="http://www.w3.org/2000/svg">
    <!-- Generated with Rich https://www.textualize.io -->
    <style>

    @font-face {
        font-family: "Fira Code";
        src: local("FiraCode-Regular"),
                url("https://cdnjs.cloudflare.com/ajax/libs/firacode/6.2.0/woff2/FiraCode-Regular.woff2") format("woff2"),
                url("https://cdnjs.cloudflare.com/ajax/libs/firacode/6.2.0/woff/FiraCode-Regular.woff") format("woff");
        font-style: normal;
        font-weight: 400;
    }
    @font-face {
        font-family: "Fira Code";
        src: local("FiraCode-Bold"),
                url("https://cdnjs.cloudflare.com/ajax/libs/firacode/6.2.0/woff2/FiraCode-Bold.woff2") format("woff2"),
                url("https://cdnjs.cloudflare.com/ajax/libs/firacode/6.2.0/woff/FiraCode-Bold.woff") format("woff");
        font-style: bold;
        font-weight: 700;
    }

    .terminal-286970932-matrix {
        font-family: Fira Code, monospace;
        font-size: 20px;
        line-height: 24.4px;
        font-variant-east-asian: full-width;
    }

    .terminal-286970932-title {
        font-size: 18px;
        font-weight: bold;
        font-family: arial;
    }

    .terminal-286970932-r1 { fill: #c5c8c6 }
.terminal-286970932-r2 { fill: #e0e0e0 }
.terminal-286970932-r3 { fill: #0178d4;font-weight: bold }
.terminal-286970932-r4 { fill: #f4bb6e }
.terminal-286970932-r5 { fill: #e0e0e0;font-weight: bold }
.terminal-286970932-r6 { fill: #0178d4;text-decoration: underline; }
.terminal-286970932-r7 { fill: #57a5e2 }
.terminal-286970932-r8 { fill: #ffa62b;font-weight: bold }
.terminal-286970932-r9 { fill: #495259 }
    </style>

    <defs>
    <clipPath id="terminal-286970932-clip-terminal">
      <rect x="0" y="0" width="1463.0" height="975.0" />
    </clipPath>
    <clipPath id="terminal-286970932-line-0">
    <rect x="0" y="1.5" width="1464" height="24.65"/>
            </clipPath>
<clipPath id="terminal-286970932-line-1">
    <rect x="0" y="25.9" width="1464" height="24.65"/>
            </clipPath>
<clipPath id="terminal-286970932-line-2">
    <rect x="0" y="50.3" width="1464" height="24.65"/>
            </clipPath>
<clipPath id="terminal-286970932-line-3">
    <rect x="0" y="74.7" width="1464" height="24.65"/>
            </clipPath>
<clipPath id="terminal-286970932-line-4">
    <rect x="0" y="99.1" width="1464" height="24.65"/>
            </clipPath>
<clipPath id="terminal-286970932-line-5">
    <rect x="0" y="123.5" width="1464" height="24.65"/>
            </clipPath>
<clipPath id="terminal-286970932-line-6">
    <rect x="0" y="147.9" width="1464" height="24.65"/>
            </clipPath>
<clipPath id="terminal-286970932-line-7">
    <rect x="0" y="172.3" width="1464" height="24.65"/>
            </clipPath>
<clipPath id="terminal-286970932-line-8">
    <rect x="0" y="196.7" width="1464" height="24.65"/>
            </clipPath>
<clipPath id="terminal-286970932-line-9">
    <rect x="0" y="221.1" width="1464" height="24.65"/>
            </clipPath>
<clipPath id="terminal-286970932-line-10">
    <rect x="0" y="245.5" width="1464" height="24.65"/>
            </clipPath>
<clipPath id="terminal-286970932-line-11">
    <rect x="0" y="269.9" width="1464" height="24.65"/>
            </clipPath>
<clipPath id="terminal-286970932-line-12">
    <rect x="0" y="294.3" width="1464" height="24.65"/>
            </clipPath>
<clipPath id="terminal-286970932-line-13">
    <rect x="0" y="318.7" width="1464" height="24.65"/>
            </clipPath>
<clipPath id="terminal-286970932-line-14">
    <rect x="0" y="343.1" width="1464" height="24.65"/>
            </clipPath>
<clipPath id="terminal-286970932-line-15">
    <rect x="0" y="367.5" width="1464" height="24.65"/>
            </clipPath>
<clipPath id="terminal-286970932-line-16">
    <rect x="0" y="391.9" width="1464" height="24.65"/>
            </clipPath>
<clipPath id="terminal-286970932-line-17">
    <rect x="0" y="416.3" width="1464" height="24.65"/>
            </clipPath>
<clipPath id="terminal-286970932-line-18">
    <rect x="0" y="440.7" width="1464" height="24.65"/>
            </clipPath>
<clipPath id="terminal-286970932-line-19">
    <rect x="0" y="465.1" width="1464" height="24.65"/>
            </clipPath>
<clipPath id="terminal-286970932-line-20">
    <rect x="0" y="489.5" width="1464" height="24.65"/>
            </clipPath>
<clipPath id="terminal-286970932-line-21">
    <rect x="0" y="513.9" width="1464" height="24.65"/>
            </clipPath>
<clipPath id="terminal-286970932-line-22">
    <rect x="0" y="538.3" width="1464" height="24.65"/>
            </clipPath>
<clipPath id="terminal-286970932-line-23">
    <rect x="0" y="562.7" width="1464" height="24.65"/>
            </clipPath>
<clipPath id="terminal-286970932-line-24">
    <rect x="0" y="587.1" width="1464" height="24.65"/>
            </clipPath>
<clipPath id="terminal-286970932-line-25">
    <rect x="0" y="611.5" width="1464" height="24.65"/>
            </clipPath>
<clipPath id="terminal-286970932-line-26">
    <rect x="0" y="635.9" width="1464" height="24.65"/>
            </clipPath>
<clipPath id="terminal-286970932-line-27">
    <rect x="0" y="660.3" width="1464" height="24.65"/>
            </clipPath>
<clipPath id="terminal-286970932-line-28">
    <rect x="0" y="684.7" width="1464" height="24.65"/>
            </clipPath>
<clipPath id="terminal-286970932-line-29">
    <rect x="0" y="709.1" width="1464" height="24.65"/>
            </clipPath>
<clipPath id="terminal-286970932-line-30">
    <rect x="0" y="733.5" width="1464" height="24.65"/>
            </clipPath>
<clipPath id="terminal-286970932-line-31">
    <rect x="0" y="757.9" width="1464" height="24.65"/>
            </clipPath>
<clipPath id="terminal-286970932-line-32">
    <rect x="0" y="782.3" width="1464" height="24.65"/>
            </clipPath>
<clipPath id="terminal-286970932-line-33">
    <rect x="0" y="806.7" width="1464" height="24.65"/>
            </clipPath>
<clipPath id="terminal-286970932-line-34">
    <rect x="0" y="831.1" width="1464" height="24.65"/>
            </clipPath>
<clipPath id="terminal-286970932-line-35">
    <rect x="0" y="855.5" width="1464" height="24.65"/>
            </clipPath>
<clipPath id="terminal-286970932-line-36">
    <rect x="0" y="879.9" width="1464" height="24.65"/>
            </clipPath>
<clipPath id="terminal-286970932-line-37">
    <rect x="0" y="904.3" width="1464" height="24.65"/>
            </clipPath>
<clipPath id="terminal-286970932-line-38">
    <rect x="0" y="928.7" width="1464" height="24.65"/>
            </clipPath>
    </defs>

    <rect fill="#292929" stroke="rgba(255,255,255,0.35)" stroke-width="1" x="1" y="1" width="1480" height="1024" rx="8"/><text class="terminal-286970932-title" fill="#c5c8c6" text-anchor="middle" x="740" y="27">NexusLIMS&#160;Configurator&#160;—&#160;/home/runner/work/NexusLIMS/NexusLIMS/pr-source/demo.env</text>
            <g transform="translate(26,22)">
            <circle cx="0" cy="0" r="7" fill="#ff5f57"/>
            <circle cx="22" cy="0" r="7" fill="#febc2e"/>
            <circle cx="44" cy="0" r="7" fill="#28c840"/>
            </g>
        
    <g transform="translate(9, 41)" clip-path="url(#terminal-286970932-clip-terminal)">
    <rect fill="#242f38" x="0" y="1.5" width="12.2" height="24.65" shape-rendering="crispEdges"/><rect fill="#242f38" x="12.2" y="1.5" width="12.2" height="24.65" shape-rendering="crispEdges"/><rect fill="#242f38" x="24.4" y="1.5" width="61" height="24.65" shape-rendering="crispEdges"/><rect fill="#242f38" x="85.4" y="1.5" width="12.2" height="24.65" shape-rendering="crispEdges"/><rect fill="#242f38" x="97.6" y="1.5" width="122" height="24.65" shape-rendering="crispEdges"/><rect fill="#242f38" x="219.6" y="1.5" width="988.2" height="24.65" shape-rendering="crispEdges"/><rect fill="#242f38" x="1207.8" y="1.5" width="134.2" height="24.65" shape-rendering="crispEdges"/><rect fill="#242f38" x="1342" y="1.5" width="12.2" height="24.65" shape-rendering="crispEdges"/><rect fill="#242f38" x="1354.2" y="1.5" width="0" height="24.65" shape-rendering="crispEdges"/><rect fill="#242f38" x="1354.2" y="1.5" width="97.6" height="24.65" shape-rendering="crispEdges"/><rect fill="#242f38" x="1451.8" y="1.5" width="12.2" height="24.65" shape-rendering="crispEdges"/><rect fill="#121212" x="0" y="25.9" width="24.4" height="24.65" shape-rendering="crispEdges"/><rect fill="#121212" x="24.4" y="25.9" width="1415.2" height="24.65" shape-rendering="crispEdges"/><rect fill="#121212" x="1439.6" y="25.9" width="24.4" height="24.65" shape-rendering="crispEdges"/><rect fill="#121212" x="0" y="50.3" width="24.4" height="24.65" shape-rendering="crispEdges"/><rect fill="#121212" x="24.4" y="50.3" width="1415.2" height="24.65" shape-rendering="crispEdges"/><rect fill="#121212" x="1439.6" y="50.3" width="24.4" height="24.65" shape-rendering="crispEdges"/><rect fill="#121212" x="0" y="74.7" width="24.4" height="24.65" shape-rendering="crispEdges"/><rect fill="#121212" x="24.4" y="74.7" width="573.4" height="24.65" shape-rendering="crispEdges"/><rect fill="#121212" x="597.8" y="74.7" width="268.4" height="24.65" shape-rendering="crispEdges"/><rect fill="#121212" x="866.2" y="74.7" width="573.4" height="24.65" shape-rendering="crispEdges"/><rect fill="#121212" x="1439.6" y="74.7" width="24.4" height="24.65" shape-rendering="crispEdges"/><rect fill="#121212" x="0" y="99.1" width="24.4" height="24.65" shape-rendering="crispEdges"/><rect fill="#121212" x="24.4" y="99.1" width="1415.2" height="24.65" shape-rendering="crispEdges"/><rect fill="#121212" x="1439.6" y="99.1" width="24.4" height="24.65" shape-rendering="crispEdges"/><rect fill="#121212" x="0" y="123.5" width="24.4" height="24.65" shape-rendering="crispEdges"/><rect fill="#121212" x="24.4" y="123.5" width="561.2" height="24.65" shape-rendering="crispEdges"/><rect fill="#241d13" x="585.6" y="123.5" width="48.8" height="24.65" shape-rendering="crispEdges"/><rect fill="#121212" x="634.4" y="123.5" width="805.2" height="24.65" shape-rendering="crispEdges"/><rect fill="#121212" x="1439.6" y="123.5" width="24.4" height="24.65" shape-rendering="crispEdges"/><rect fill="#121212" x="0" y="147.9" width="24.4" height="24.65" shape-rendering="crispEdges"/><rect fill="#121212" x="24.4" y="147.9" width="817.4" height="24.65" shape-rendering="crispEdges"/><rect fill="#121212" x="841.8" y="147.9" width="158.6" height="24.65" shape-rendering="crispEdges"/><rect fill="#121212" x="1000.4" y="147.9" width="170.8" height="24.65" shape-rendering="crispEdges"/><rect fill="#241d13" x="1171.2" y="147.9" width="48.8" height="24.65" shape-rendering="crispEdges"/><rect fill="#121212" x="1220" y="147.9" width="219.6" height="24.65" shape-rendering="crispEdges"/><rect fill="#121212" x="1439.6" y="147.9" width="24.4" height="24.65" shape-rendering="crispEdges"/><rect fill="#121212" x="0" y="172.3" width="24.4" height="24.65" shape-rendering="crispEdges"/><rect fill="#121212" x="24.4" y="172.3" width="536.8" height="24.65" shape-rendering="crispEdges"/><rect fill="#121212" x="561.2" y="172.3" width="146.4" height="24.65" shape-rendering="crispEdges"/><rect fill="#121212" x="707.6" y="172.3" width="671" height="24.65" shape-rendering="crispEdges"/><rect fill="#121212" x="1378.6" y="172.3" width="61" height="24.65" shape-rendering="crispEdges"/><rect fill="#121212" x="1439.6" y="172.3" width="24.4" height="24.65" shape-rendering="crispEdges"/><rect fill="#121212" x="0" y="196.7" width="24.4" height="24.65" shape-rendering="crispEdges"/><rect fill="#121212" x="24.4" y="196.7" width="195.2" height="24.65" shape-rendering="crispEdges"/><rect fill="#121212" x="219.6" y="196.7" width="1220" height="24.65" shape-rendering="crispEdges"/><rect fill="#121212" x="1439.6" y="196.7" width="24.4" height="24.65" shape-rendering="crispEdges"/><rect fill="#121212" x="0" y="221.1" width="24.4" height="24.65" shape-rendering="crispEdges"/><rect fill="#121212" x="24.4" y="221.1" width="1415.2" height="24.65" shape-rendering="crispEdges"/><rect fill="#121212" x="1439.6" y="221.1" width="24.4" height="24.65" shape-rendering="crispEdges"/><rect fill="#121212" x="0" y="245.5" width="24.4" height="24.65" shape-rendering="crispEdges"/><rect fill="#121212" x="24.4" y="245.5" width="390.4" height="24.65" shape-rendering="crispEdges"/><rect fill="#121212" x="414.8" y="245.5" width="122" height="24.65" shape-rendering="crispEdges"/><rect fill="#121212" x="536.8" y="245.5" width="24.4" height="24.65" shape-rendering="crispEdges"/><rect fill="#121212" x="561.2" y="245.5" width="48.8" height="24.65" shape-rendering="crispEdges"/><rect fill="#121212" x="610" y="245.5" width="24.4" height="24.65" shape-rendering="crispEdges"/><rect fill="#121212" x="634.4" y="245.5" width="183" height="24.65" shape-rendering="crispEdges"/><rect fill="#121212" x="817.4" y="245.5" width="24.4" height="24.65" shape-rendering="crispEdges"/><rect fill="#121212" x="841.8" y="245.5" width="183" height="24.65" shape-rendering="crispEdges"/><rect fill="#121212" x="1024.8" y="245.5" width="24.4" height="24.65" shape-rendering="crispEdges"/><rect fill="#121212" x="1049.2" y="245.5" width="85.4" height="24.65" shape-rendering="crispEdges"/><rect fill="#121212" x="1134.6" y="245.5" width="24.4" height="24.65" shape-rendering="crispEdges"/><rect fill="#121212" x="1159" y="245.5" width="61" height="24.65" shape-rendering="crispEdges"/><rect fill="#121212" x="1220" y="245.5" width="73.2" height="24.65" shape-rendering="crispEdges"/><rect fill="#121212" x="1293.2" y="245.5" width="134.2" height="24.65" shape-rendering="crispEdges"/><rect fill="#121212" x="1427.4" y="245.5" width="12.2" height="24.65" shape-rendering="crispEdges"/><rect fill="#121212" x="1439.6" y="245.5" width="24.4" height="24.65" shape-rendering="crispEdges"/><rect fill="#121212" x="0" y="269.9" width="24.4" height="24.65" shape-rendering="crispEdges"/><rect fill="#121212" x="24.4" y="269.9" width="390.4" height="24.65" shape-rendering="crispEdges"/><rect fill="#121212" x="414.8" y="269.9" width="24.4" height="24.65" shape-rendering="crispEdges"/><rect fill="#121212" x="439.2" y="269.9" width="573.4" height="24.65" shape-rendering="crispEdges"/><rect fill="#121212" x="1012.6" y="269.9" width="427" height="24.65" shape-rendering="crispEdges"/><rect fill="#121212" x="1439.6" y="269.9" width="24.4" height="24.65" shape-rendering="crispEdges"/><rect fill="#121212" x="0" y="294.3" width="24.4" height="24.65" shape-rendering="crispEdges"/><rect fill="#121212" x="24.4" y="294.3" width="1415.2" height="24.65" shape-rendering="crispEdges"/><rect fill="#121212" x="1439.6" y="294.3" width="24.4" height="24.65" shape-rendering="crispEdges"/><rect fill="#121212" x="0" y="318.7" width="24.4" height="24.65" shape-rendering="crispEdges"/><rect fill="#121212" x="24.4" y="318.7" width="1415.2" height="24.65" shape-rendering="crispEdges"/><rect fill="#121212" x="1439.6" y="318.7" width="24.4" height="24.65" shape-rendering="crispEdges"/><rect fill="#121212" x="0" y="343.1" width="24.4" height="24.65" shape-rendering="crispEdges"/><rect fill="#121212" x="24.4" y="343.1" width="134.2" height="24.65" shape-rendering="crispEdges"/><rect fill="#121212" x="158.6" y="343.1" width="1281" height="24.65" shape-rendering="crispEdges"/><rect fill="#121212" x="1439.6" y="343.1" width="24.4" height="24.65" shape-rendering="crispEdges"/><rect fill="#121212" x="0" y="367.5" width="24.4" height="24.65" shape-rendering="crispEdges"/><rect fill="#121212" x="24.4" y="367.5" width="1415.2" height="24.65" shape-rendering="crispEdges"/><rect fill="#121212" x="1439.6" y="367.5" width="24.4" height="24.65" shape-rendering="crispEdges"/><rect fill="#121212" x="0" y="391.9" width="24.4" height="24.65" shape-rendering="crispEdges"/><rect fill="#121212" x="24.4" y="391.9" width="24.4" height="24.65" shape-rendering="crispEdges"/><rect fill="#121212" x="48.8" y="391.9" width="24.4" height="24.65" shape-rendering="crispEdges"/><rect fill="#121212" x="73.2" y="391.9" width="512.4" height="24.65" shape-rendering="crispEdges"/><rect fill="#121212" x="585.6" y="391.9" width="854" height="24.65" shape-rendering="crispEdges"/><rect fill="#121212" x="1439.6" y="391.9" width="24.4" height="24.65" shape-rendering="crispEdges"/><rect fill="#121212" x="0" y="416.3" width="24.4" height="24.65" shape-rendering="crispEdges"/><rect fill="#121212" x="24.4" y="416.3" width="24.4" height="24.65" shape-rendering="crispEdges"/><rect fill="#121212" x="48.8" y="416.3" width="73.2" height="24.65" shape-rendering="crispEdges"/><rect fill="#121212" x="122" y="416.3" width="402.6" height="24.65" shape-rendering="crispEdges"/><rect fill="#121212" x="524.6" y="416.3" width="915" height="24.65" shape-rendering="crispEdges"/><rect fill="#121212" x="1439.6" y="416.3" width="24.4" height="24.65" shape-rendering="crispEdges"/><rect fill="#121212" x="0" y="440.7" width="24.4" height="24.65" shape-rendering="crispEdges"/><rect fill="#121212" x="24.4" y="440.7" width="24.4" height="24.65" shape-rendering="crispEdges"/><rect fill="#121212" x="48.8" y="440.7" width="73.2" height="24.65" shape-rendering="crispEdges"/><rect fill="#121212" x="122" y="440.7" width="219.6" height="24.65" shape-rendering="crispEdges"/><rect fill="#121212" x="341.6" y="440.7" width="1098" height="24.65" shape-rendering="crispEdges"/><rect fill="#121212" x="1439.6" y="440.7" width="24.4" height="24.65" shape-rendering="crispEdges"/><rect fill="#121212" x="0" y="465.1" width="24.4" height="24.65" shape-rendering="crispEdges"/><rect fill="#121212" x="24.4" y="465.1" width="24.4" height="24.65" shape-rendering="crispEdges"/><rect fill="#121212" x="48.8" y="465.1" width="183" height="24.65" shape-rendering="crispEdges"/><rect fill="#121212" x="231.8" y="465.1" width="256.2" height="24.65" shape-rendering="crispEdges"/><rect fill="#121212" x="488" y="465.1" width="951.6" height="24.65" shape-rendering="crispEdges"/><rect fill="#121212" x="1439.6" y="465.1" width="24.4" height="24.65" shape-rendering="crispEdges"/><rect fill="#121212" x="0" y="489.5" width="24.4" height="24.65" shape-rendering="crispEdges"/><rect fill="#121212" x="24.4" y="489.5" width="24.4" height="24.65" shape-rendering="crispEdges"/><rect fill="#121212" x="48.8" y="489.5" width="61" height="24.65" shape-rendering="crispEdges"/><rect fill="#121212" x="109.8" y="489.5" width="402.6" height="24.65" shape-rendering="crispEdges"/><rect fill="#121212" x="512.4" y="489.5" width="927.2" height="24.65" shape-rendering="crispEdges"/><rect fill="#121212" x="1439.6" y="489.5" width="24.4" height="24.65" shape-rendering="crispEdges"/><rect fill="#121212" x="0" y="513.9" width="24.4" height="24.65" shape-rendering="crispEdges"/><rect fill="#121212" x="24.4" y="513.9" width="24.4" height="24.65" shape-rendering="crispEdges"/><rect fill="#121212" x="48.8" y="513.9" width="73.2" height="24.65" shape-rendering="crispEdges"/><rect fill="#121212" x="122" y="513.9" width="219.6" height="24.65" shape-rendering="crispEdges"/><rect fill="#121212" x="341.6" y="513.9" width="1098" height="24.65" shape-rendering="crispEdges"/><rect fill="#121212" x="1439.6" y="513.9" width="24.4" height="24.65" shape-rendering="crispEdges"/><rect fill="#121212" x="0" y="538.3" width="24.4" height="24.65" shape-rendering="crispEdges"/><rect fill="#121212" x="24.4" y="538.3" width="24.4" height="24.65" shape-rendering="crispEdges"/><rect fill="#121212" x="48.8" y="538.3" width="73.2" height="24.65" shape-rendering="crispEdges"/><rect fill="#121212" x="122" y="538.3" width="329.4" height="24.65" shape-rendering="crispEdges"/><rect fill="#121212" x="451.4" y="538.3" width="988.2" height="24.65" shape-rendering="crispEdges"/><rect fill="#121212" x="1439.6" y="538.3" width="24.4" height="24.65" shape-rendering="crispEdges"/><rect fill="#121212" x="0" y="562.7" width="24.4" height="24.65" shape-rendering="crispEdges"/><rect fill="#121212" x="24.4" y="562.7" width="24.4" height="24.65" shape-rendering="crispEdges"/><rect fill="#121212" x="48.8" y="562.7" width="12.2" height="24.65" shape-rendering="crispEdges"/><rect fill="#121212" x="61" y="562.7" width="195.2" height="24.65" shape-rendering="crispEdges"/><rect fill="#121212" x="256.2" y="562.7" width="1183.4" height="24.65" shape-rendering="crispEdges"/><rect fill="#121212" x="1439.6" y="562.7" width="24.4" height="24.65" shape-rendering="crispEdges"/><rect fill="#121212" x="0" y="587.1" width="24.4" height="24.65" shape-rendering="crispEdges"/><rect fill="#121212" x="24.4" y="587.1" width="1415.2" height="24.65" shape-rendering="crispEdges"/><rect fill="#121212" x="1439.6" y="587.1" width="24.4" height="24.65" shape-rendering="crispEdges"/><rect fill="#121212" x="0" y="611.5" width="24.4" height="24.65" shape-rendering="crispEdges"/><rect fill="#121212" x="24.4" y="611.5" width="1415.2" height="24.65" shape-rendering="crispEdges"/><rect fill="#121212" x="1439.6" y="611.5" width="24.4" height="24.65" shape-rendering="crispEdges"/><rect fill="#121212" x="0" y="635.9" width="24.4" height="24.65" shape-rendering="crispEdges"/><rect fill="#121212" x="24.4" y="635.9" width="183" height="24.65" shape-rendering="crispEdges"/><rect fill="#121212" x="207.4" y="635.9" width="1232.2" height="24.65" shape-rendering="crispEdges"/><rect fill="#121212" x="1439.6" y="635.9" width="24.4" height="24.65" shape-rendering="crispEdges"/><rect fill="#121212" x="0" y="660.3" width="24.4" height="24.65" shape-rendering="crispEdges"/><rect fill="#121212" x="24.4" y="660.3" width="1415.2" height="24.65" shape-rendering="crispEdges"/><rect fill="#121212" x="1439.6" y="660.3" width="24.4" height="24.65" shape-rendering="crispEdges"/><rect fill="#121212" x="0" y="684.7" width="24.4" height="24.65" shape-rendering="crispEdges"/><rect fill="#121212" x="24.4" y="684.7" width="24.4" height="24.65" shape-rendering="crispEdges"/><rect fill="#121212" x="48.8" y="684.7" width="73.2" height="24.65" shape-rendering="crispEdges"/><rect fill="#121212" x="122" y="684.7" width="463.6" height="24.65" shape-rendering="crispEdges"/><rect fill="#121212" x="585.6" y="684.7" width="854" height="24.65" shape-rendering="crispEdges"/><rect fill="#121212" x="1439.6" y="684.7" width="24.4" height="24.65" shape-rendering="crispEdges"/><rect fill="#121212" x="0" y="709.1" width="24.4" height="24.65" shape-rendering="crispEdges"/><rect fill="#121212" x="24.4" y="709.1" width="1415.2" height="24.65" shape-rendering="crispEdges"/><rect fill="#121212" x="1439.6" y="709.1" width="24.4" height="24.65" shape-rendering="crispEdges"/><rect fill="#121212" x="0" y="733.5" width="24.4" height="24.65" shape-rendering="crispEdges"/><rect fill="#121212" x="24.4" y="733.5" width="1415.2" height="24.65" shape-rendering="crispEdges"/><rect fill="#121212" x="1439.6" y="733.5" width="24.4" height="24.65" shape-rendering="crispEdges"/><rect fill="#121212" x="0" y="757.9" width="24.4" height="24.65" shape-rendering="crispEdges"/><rect fill="#121212" x="24.4" y="757.9" width="122" height="24.65" shape-rendering="crispEdges"/><rect fill="#121212" x="146.4" y="757.9" width="1293.2" height="24.65" shape-rendering="crispEdges"/><rect fill="#121212" x="1439.6" y="757.9" width="24.4" height="24.65" shape-rendering="crispEdges"/><rect fill="#121212" x="0" y="782.3" width="24.4" height="24.65" shape-rendering="crispEdges"/><rect fill="#121212" x="24.4" y="782.3" width="1415.2" height="24.65" shape-rendering="crispEdges"/><rect fill="#121212" x="1439.6" y="782.3" width="24.4" height="24.65" shape-rendering="crispEdges"/><rect fill="#121212" x="0" y="806.7" width="24.4" height="24.65" shape-rendering="crispEdges"/><rect fill="#121212" x="24.4" y="806.7" width="24.4" height="24.65" shape-rendering="crispEdges"/><rect fill="#121212" x="48.8" y="806.7" width="122" height="24.65" shape-rendering="crispEdges"/><rect fill="#121212" x="170.8" y="806.7" width="317.2" height="24.65" shape-rendering="crispEdges"/><rect fill="#121212" x="488" y="806.7" width="951.6" height="24.65" shape-rendering="crispEdges"/><rect fill="#121212" x="1439.6" y="806.7" width="24.4" height="24.65" shape-rendering="crispEdges"/><rect fill="#121212" x="0" y="831.1" width="24.4" height="24.65" shape-rendering="crispEdges"/><rect fill="#121212" x="24.4" y="831.1" width="24.4" height="24.65" shape-rendering="crispEdges"/><rect fill="#121212" x="48.8" y="831.1" width="36.6" height="24.65" shape-rendering="crispEdges"/><rect fill="#121212" x="85.4" y="831.1" width="317.2" height="24.65" shape-rendering="crispEdges"/><rect fill="#121212" x="402.6" y="831.1" width="1037" height="24.65" shape-rendering="crispEdges"/><rect fill="#121212" x="1439.6" y="831.1" width="24.4" height="24.65" shape-rendering="crispEdges"/><rect fill="#121212" x="0" y="855.5" width="24.4" height="24.65" shape-rendering="crispEdges"/><rect fill="#121212" x="24.4" y="855.5" width="24.4" height="24.65" shape-rendering="crispEdges"/><rect fill="#121212" x="48.8" y="855.5" width="61" height="24.65" shape-rendering="crispEdges"/><rect fill="#121212" x="109.8" y="855.5" width="183" height="24.65" shape-rendering="crispEdges"/><rect fill="#121212" x="292.8" y="855.5" width="1146.8" height="24.65" shape-rendering="crispEdges"/><rect fill="#121212" x="1439.6" y="855.5" width="24.4" height="24.65" shape-rendering="crispEdges"/><rect fill="#121212" x="0" y="879.9" width="24.4" height="24.65" shape-rendering="crispEdges"/><rect fill="#121212" x="24.4" y="879.9" width="24.4" height="24.65" shape-rendering="crispEdges"/><rect fill="#121212" x="48.8" y="879.9" width="73.2" height="24.65" shape-rendering="crispEdges"/><rect fill="#121212" x="122" y="879.9" width="195.2" height="24.65" shape-rendering="crispEdges"/><rect fill="#121212" x="317.2" y="879.9" width="1122.4" height="24.65" shape-rendering="crispEdges"/><rect fill="#121212" x="1439.6" y="879.9" width="24.4" height="24.65" shape-rendering="crispEdges"/><rect fill="#121212" x="0" y="904.3" width="24.4" height="24.65" shape-rendering="crispEdges"/><rect fill="#121212" x="24.4" y="904.3" width="1415.2" height="24.65" shape-rendering="crispEdges"/><rect fill="#121212" x="1439.6" y="904.3" width="24.4" height="24.65" shape-rendering="crispEdges"/><rect fill="#121212" x="0" y="928.7" width="1464" height="24.65" shape-rendering="crispEdges"/><rect fill="#242f38" x="0" y="953.1" width="61" height="24.65" shape-rendering="crispEdges"/><rect fill="#242f38" x="61" y="953.1" width="134.2" height="24.65" shape-rendering="crispEdges"/><rect fill="#242f38" x="195.2" y="953.1" width="48.8" height="24.65" shape-rendering="crispEdges"/><rect fill="#242f38" x="244" y="953.1" width="61" height="24.65" shape-rendering="crispEdges"/><rect fill="#242f38" x="305" y="953.1" width="48.8" height="24.65" shape-rendering="crispEdges"/><rect fill="#242f38" x="353.8" y="953.1" width="158.6" height="24.65" shape-rendering="crispEdges"/><rect fill="#242f38" x="512.4" y="953.1" width="36.6" height="24.65" shape-rendering="crispEdges"/><rect fill="#242f38" x="549" y="953.1" width="61" height="24.65" shape-rendering="crispEdges"/><rect fill="#242f38" x="610" y="953.1" width="707.6" height="24.65" shape-rendering="crispEdges"/><rect fill="#242f38" x="1317.6" y="953.1" width="12.2" height="24.65" shape-rendering="crispEdges"/><rect fill="#242f38" x="1329.8" y="953.1" width="24.4" height="24.65" shape-rendering="crispEdges"/><rect fill="#242f38" x="1354.2" y="953.1" width="97.6" height="24.65" shape-rendering="crispEdges"/><rect fill="#242f38" x="1451.8" y="953.1" width="12.2" height="24.65" shape-rendering="crispEdges"/>
    <g class="terminal-286970932-matrix">
    <text class="terminal-286970932-r2" x="12.2" y="20" textLength="12.2" clip-path="url(#terminal-286970932-line-0)">⭘</text><text class="terminal-286970932-r2" x="219.6" y="20" textLength="988.2" clip-path="url(#terminal-286970932-line-0)">NexusLIMS&#160;Configurator&#160;—&#160;/home/runner/work/NexusLIMS/NexusLIMS/pr-source/demo.env</text><text class="terminal-286970932-r1" x="1464" y="20" textLength="12.2" clip-path="url(#terminal-286970932-line-0)">
</text><text class="terminal-286970932-r1" x="1464" y="44.4" textLength="12.2" clip-path="url(#terminal-286970932-line-1)">
</text><text class="terminal-286970932-r1" x="1464" y="68.8" textLength="12.2" clip-path="url(#terminal-286970932-line-2)">
</text><text class="terminal-286970932-r3" x="597.8" y="93.2" textLength="268.4" clip-path="url(#terminal-286970932-line-3)">NexusLIMS&#160;Configurator</text><text class="terminal-286970932-r1" x="1464" y="93.2" textLength="12.2" clip-path="url(#terminal-286970932-line-3)">
</text><text class="terminal-286970932-r1" x="1464" y="117.6" textLength="12.2" clip-path="url(#terminal-286970932-line-4)">
</text><text class="terminal-286970932-r2" x="24.4" y="142" textLength="561.2" clip-path="url(#terminal-286970932-line-5)">The&#160;NexusLIMS&#160;Configurator&#160;reads&#160;and&#160;writes&#160;a&#160;</text><text class="terminal-286970932-r4" x="585.6" y="142" textLength="48.8" clip-path="url(#terminal-286970932-line-5)">.env</text><text class="terminal-286970932-r2" x="634.4" y="142" textLength="805.2" clip-path="url(#terminal-286970932-line-5)">&#160;file&#160;that&#160;controls&#160;all&#160;NexusLIMS&#160;settings.&#160;On&#160;launch&#160;it&#160;loads&#160;the</text><text class="terminal-286970932-r1" x="1464" y="142" textLength="12.2" clip-path="url(#terminal-286970932-line-5)">
</text><text class="terminal-286970932-r2" x="24.4" y="166.4" textLength="817.4" clip-path="url(#terminal-286970932-line-6)">existing&#160;file&#160;(if&#160;present)&#160;and&#160;pre-populates&#160;every&#160;field.&#160;Pressing&#160;</text><text class="terminal-286970932-r5" x="841.8" y="166.4" textLength="158.6" clip-path="url(#terminal-286970932-line-6)">Save&#160;(Ctrl+S)</text><text class="terminal-286970932-r2" x="1000.4" y="166.4" textLength="170.8" clip-path="url(#terminal-286970932-line-6)">&#160;writes&#160;a&#160;new&#160;</text><text class="terminal-286970932-r4" x="1171.2" y="166.4" textLength="48.8" clip-path="url(#terminal-286970932-line-6)">.env</text><text class="terminal-286970932-r2" x="1220" y="166.4" textLength="219.6" clip-path="url(#terminal-286970932-line-6)">&#160;at&#160;the&#160;same&#160;path,</text><text class="terminal-286970932-r1" x="1464" y="166.4" textLength="12.2" clip-path="url(#terminal-286970932-line-6)">
</text><text class="terminal-286970932-r2" x="24.4" y="190.8" textLength="536.8" clip-path="url(#terminal-286970932-line-7)">overwriting&#160;the&#160;previous&#160;contents.&#160;Pressing&#160;</text><text class="terminal-286970932-r5" x="561.2" y="190.8" textLength="146.4" clip-path="url(#terminal-286970932-line-7)">Cancel&#160;(Esc)</text><text class="terminal-286970932-r2" x="707.6" y="190.8" textLength="671" clip-path="url(#terminal-286970932-line-7)">&#160;exits&#160;without&#160;saving&#160;—&#160;you&#160;will&#160;be&#160;warned&#160;if&#160;there&#160;are</text><text class="terminal-286970932-r1" x="1464" y="190.8" textLength="12.2" clip-path="url(#terminal-286970932-line-7)">
</text><text class="terminal-286970932-r2" x="24.4" y="215.2" textLength="195.2" clip-path="url(#terminal-286970932-line-8)">unsaved&#160;changes.</text><text class="terminal-286970932-r1" x="1464" y="215.2" textLength="12.2" clip-path="url(#terminal-286970932-line-8)">
</text><text class="terminal-286970932-r1" x="1464" y="239.6" textLength="12.2" clip-path="url(#terminal-286970932-line-9)">
</text><text class="terminal-286970932-r2" x="24.4" y="264" textLength="390.4" clip-path="url(#terminal-286970932-line-10)">Settings&#160;are&#160;grouped&#160;into&#160;tabs:&#160;</text><text class="terminal-286970932-r5" x="414.8" y="264" textLength="122" clip-path="url(#terminal-286970932-line-10)">Core&#160;Paths</text><text class="terminal-286970932-r2" x="536.8" y="264" textLength="24.4" clip-path="url(#terminal-286970932-line-10)">,&#160;</text><text class="terminal-286970932-r5" x="561.2" y="264" textLength="48.8" clip-path="url(#terminal-286970932-line-10)">CDCS</text><text class="terminal-286970932-r2" x="610" y="264" textLength="24.4" clip-path="url(#terminal-286970932-line-10)">,&#160;</text><text class="terminal-286970932-r5" x="634.4" y="264" textLength="183" clip-path="url(#terminal-286970932-line-10)">File&#160;Processing</text><text class="terminal-286970932-r2" x="817.4" y="264" textLength="24.4" clip-path="url(#terminal-286970932-line-10)">,&#160;</text><text class="terminal-286970932-r5" x="841.8" y="264" textLength="183" clip-path="url(#terminal-286970932-line-10)">NEMO&#160;Harvesters</text><text class="terminal-286970932-r2" x="1024.8" y="264" textLength="24.4" clip-path="url(#terminal-286970932-line-10)">,&#160;</text><text class="terminal-286970932-r5" x="1049.2" y="264" textLength="85.4" clip-path="url(#terminal-286970932-line-10)">eLabFTW</text><text class="terminal-286970932-r2" x="1134.6" y="264" textLength="24.4" clip-path="url(#terminal-286970932-line-10)">,&#160;</text><text class="terminal-286970932-r5" x="1159" y="264" textLength="61" clip-path="url(#terminal-286970932-line-10)">Email</text><text class="terminal-286970932-r2" x="1220" y="264" textLength="73.2" clip-path="url(#terminal-286970932-line-10)">,&#160;and&#160;</text><text class="terminal-286970932-r5" x="1293.2" y="264" textLength="134.2" clip-path="url(#terminal-286970932-line-10)">SSL&#160;/&#160;Certs</text><text class="terminal-286970932-r2" x="1427.4" y="264" textLength="12.2" clip-path="url(#terminal-286970932-line-10)">.</text><text class="terminal-286970932-r1" x="1464" y="264" textLength="12.2" clip-path="url(#terminal-286970932-line-10)">
</text><text class="terminal-286970932-r2" x="24.4" y="288.4" textLength="390.4" clip-path="url(#terminal-286970932-line-11)">Focus&#160;any&#160;input&#160;field&#160;and&#160;press&#160;</text><text class="terminal-286970932-r5" x="414.8" y="288.4" textLength="24.4" clip-path="url(#terminal-286970932-line-11)">F1</text><text class="terminal-286970932-r2" x="439.2" y="288.4" textLength="573.4" clip-path="url(#terminal-286970932-line-11)">&#160;to&#160;read&#160;extended&#160;documentation&#160;for&#160;that&#160;field.</text><text class="terminal-286970932-r1" x="1464" y="288.4" textLength="12.2" clip-path="url(#terminal-286970932-line-11)">
</text><text class="terminal-286970932-r1" x="1464" y="312.8" textLength="12.2" clip-path="url(#terminal-286970932-line-12)">
</text><text class="terminal-286970932-r1" x="1464" y="337.2" textLength="12.2" clip-path="url(#terminal-286970932-line-13)">
</text><text class="terminal-286970932-r6" x="24.4" y="361.6" textLength="134.2" clip-path="url(#terminal-286970932-line-14)">Keybindings</text><text class="terminal-286970932-r1" x="1464" y="361.6" textLength="12.2" clip-path="url(#terminal-286970932-line-14)">
</text><text class="terminal-286970932-r1" x="1464" y="386" textLength="12.2" clip-path="url(#terminal-286970932-line-15)">
</text><text class="terminal-286970932-r7" x="24.4" y="410.4" textLength="24.4" clip-path="url(#terminal-286970932-line-16)">•&#160;</text><text class="terminal-286970932-r5" x="48.8" y="410.4" textLength="24.4" clip-path="url(#terminal-286970932-line-16)">f1</text><text class="terminal-286970932-r2" x="73.2" y="410.4" textLength="512.4" clip-path="url(#terminal-286970932-line-16)">:&#160;Show&#160;extended&#160;help&#160;for&#160;the&#160;focused&#160;field</text><text class="terminal-286970932-r1" x="1464" y="410.4" textLength="12.2" clip-path="url(#terminal-286970932-line-16)">
</text><text class="terminal-286970932-r7" x="24.4" y="434.8" textLength="24.4" clip-path="url(#terminal-286970932-line-17)">•&#160;</text><text class="terminal-286970932-r5" x="48.8" y="434.8" textLength="73.2" clip-path="url(#terminal-286970932-line-17)">ctrl+s</text><text class="terminal-286970932-r2" x="122" y="434.8" textLength="402.6" clip-path="url(#terminal-286970932-line-17)">:&#160;Save&#160;configuration&#160;to&#160;.env&#160;file</text><text class="terminal-286970932-r1" x="1464" y="434.8" textLength="12.2" clip-path="url(#terminal-286970932-line-17)">
</text><text class="terminal-286970932-r7" x="24.4" y="459.2" textLength="24.4" clip-path="url(#terminal-286970932-line-18)">•&#160;</text><text class="terminal-286970932-r5" x="48.8" y="459.2" textLength="73.2" clip-path="url(#terminal-286970932-line-18)">escape</text><text class="terminal-286970932-r2" x="122" y="459.2" textLength="219.6" clip-path="url(#terminal-286970932-line-18)">:&#160;Cancel&#160;/&#160;go&#160;back</text><text class="terminal-286970932-r1" x="1464" y="459.2" textLength="12.2" clip-path="url(#terminal-286970932-line-18)">
</text><text class="terminal-286970932-r7" x="24.4" y="483.6" textLength="24.4" clip-path="url(#terminal-286970932-line-19)">•&#160;</text><text class="terminal-286970932-r5" x="48.8" y="483.6" textLength="183" clip-path="url(#terminal-286970932-line-19)">tab&#160;/&#160;shift+tab</text><text class="terminal-286970932-r2" x="231.8" y="483.6" textLength="256.2" clip-path="url(#terminal-286970932-line-19)">:&#160;Move&#160;between&#160;fields</text><text class="terminal-286970932-r1" x="1464" y="483.6" textLength="12.2" clip-path="url(#terminal-286970932-line-19)">
</text><text class="terminal-286970932-r7" x="24.4" y="508" textLength="24.4" clip-path="url(#terminal-286970932-line-20)">•&#160;</text><text class="terminal-286970932-r5" x="48.8" y="508" textLength="61" clip-path="url(#terminal-286970932-line-20)">&lt;&#160;/&#160;&gt;</text><text class="terminal-286970932-r2" x="109.8" y="508" textLength="402.6" clip-path="url(#terminal-286970932-line-20)">:&#160;Navigate&#160;to&#160;previous&#160;/&#160;next&#160;tab</text><text class="terminal-286970932-r1" x="1464" y="508" textLength="12.2" clip-path="url(#terminal-286970932-line-20)">
</text><text class="terminal-286970932-r7" x="24.4" y="532.4" textLength="24.4" clip-path="url(#terminal-286970932-line-21)">•&#160;</text><text class="terminal-286970932-r5" x="48.8" y="532.4" textLength="73.2" clip-path="url(#terminal-286970932-line-21)">ctrl+q</text><text class="terminal-286970932-r2" x="122" y="532.4" textLength="219.6" clip-path="url(#terminal-286970932-line-21)">:&#160;Quit&#160;application</text><text class="terminal-286970932-r1" x="1464" y="532.4" textLength="12.2" clip-path="url(#terminal-286970932-line-21)">
</text><text class="terminal-286970932-r7" x="24.4" y="556.8" textLength="24.4" clip-path="url(#terminal-286970932-line-22)">•&#160;</text><text class="terminal-286970932-r5" x="48.8" y="556.8" textLength="73.2" clip-path="url(#terminal-286970932-line-22)">ctrl+t</text><text class="terminal-286970932-r2" x="122" y="556.8" textLength="329.4" clip-path="url(#terminal-286970932-line-22)">:&#160;Toggle&#160;theme&#160;(dark/light)</text><text class="terminal-286970932-r1" x="1464" y="556.8" textLength="12.2" clip-path="url(#terminal-286970932-line-22)">
</text><text class="terminal-286970932-r7" x="24.4" y="581.2" textLength="24.4" clip-path="url(#terminal-286970932-line-23)">•&#160;</text><text class="terminal-286970932-r5" x="48.8" y="581.2" textLength="12.2" clip-path="url(#terminal-286970932-line-23)">?</text><text class="terminal-286970932-r2" x="61" y="581.2" textLength="195.2" clip-path="url(#terminal-286970932-line-23)">:&#160;Show&#160;this&#160;help</text><text class="terminal-286970932-r1" x="1464" y="581.2" textLength="12.2" clip-path="url(#terminal-286970932-line-23)">
</text><text class="terminal-286970932-r1" x="1464" y="605.6" textLength="12.2" clip-path="url(#terminal-286970932-line-24)">
</text><text class="terminal-286970932-r1" x="1464" y="630" textLength="12.2" clip-path="url(#terminal-286970932-line-25)">
</text><text class="terminal-286970932-r6" x="24.4" y="654.4" textLength="183" clip-path="url(#terminal-286970932-line-26)">Theme&#160;Switching</text><text class="terminal-286970932-r1" x="1464" y="654.4" textLength="12.2" clip-path="url(#terminal-286970932-line-26)">
</text><text class="terminal-286970932-r1" x="1464" y="678.8" textLength="12.2" clip-path="url(#terminal-286970932-line-27)">
</text><text class="terminal-286970932-r7" x="24.4" y="703.2" textLength="24.4" clip-path="url(#terminal-286970932-line-28)">•&#160;</text><text class="terminal-286970932-r5" x="48.8" y="703.2" textLength="73.2" clip-path="url(#terminal-286970932-line-28)">Ctrl+T</text><text class="terminal-286970932-r2" x="122" y="703.2" textLength="463.6" clip-path="url(#terminal-286970932-line-28)">:&#160;Toggle&#160;between&#160;dark&#160;and&#160;light&#160;themes</text><text class="terminal-286970932-r1" x="1464" y="703.2" textLength="12.2" clip-path="url(#terminal-286970932-line-28)">
</text><text class="terminal-286970932-r1" x="1464" y="727.6" textLength="12.2" clip-path="url(#terminal-286970932-line-29)">
</text><text class="terminal-286970932-r1" x="1464" y="752" textLength="12.2" clip-path="url(#terminal-286970932-line-30)">
</text><text class="terminal-286970932-r6" x="24.4" y="776.4" textLength="122" clip-path="url(#terminal-286970932-line-31)">Navigation</text><text class="terminal-286970932-r1" x="1464" y="776.4" textLength="12.2" clip-path="url(#terminal-286970932-line-31)">
</text><text class="terminal-286970932-r1" x="1464" y="800.8" textLength="12.2" clip-path="url(#terminal-286970932-line-32)">
</text><text class="terminal-286970932-r7" x="24.4" y="825.2" textLength="24.4" clip-path="url(#terminal-286970932-line-33)">•&#160;</text><text class="terminal-286970932-r5" x="48.8" y="825.2" textLength="122" clip-path="url(#terminal-286970932-line-33)">Arrow&#160;keys</text><text class="terminal-286970932-r2" x="170.8" y="825.2" textLength="317.2" clip-path="url(#terminal-286970932-line-33)">:&#160;Navigate&#160;menus&#160;and&#160;forms</text><text class="terminal-286970932-r1" x="1464" y="825.2" textLength="12.2" clip-path="url(#terminal-286970932-line-33)">
</text><text class="terminal-286970932-r7" x="24.4" y="849.6" textLength="24.4" clip-path="url(#terminal-286970932-line-34)">•&#160;</text><text class="terminal-286970932-r5" x="48.8" y="849.6" textLength="36.6" clip-path="url(#terminal-286970932-line-34)">Tab</text><text class="terminal-286970932-r2" x="85.4" y="849.6" textLength="317.2" clip-path="url(#terminal-286970932-line-34)">:&#160;Move&#160;between&#160;form&#160;fields</text><text class="terminal-286970932-r1" x="1464" y="849.6" textLength="12.2" clip-path="url(#terminal-286970932-line-34)">
</text><text class="terminal-286970932-r7" x="24.4" y="874" textLength="24.4" clip-path="url(#terminal-286970932-line-35)">•&#160;</text><text class="terminal-286970932-r5" x="48.8" y="874" textLength="61" clip-path="url(#terminal-286970932-line-35)">Enter</text><text class="terminal-286970932-r2" x="109.8" y="874" textLength="183" clip-path="url(#terminal-286970932-line-35)">:&#160;Select/Submit</text><text class="terminal-286970932-r1" x="1464" y="874" textLength="12.2" clip-path="url(#terminal-286970932-line-35)">
</text><text class="terminal-286970932-r7" x="24.4" y="898.4" textLength="24.4" clip-path="url(#terminal-286970932-line-36)">•&#160;</text><text class="terminal-286970932-r5" x="48.8" y="898.4" textLength="73.2" clip-path="url(#terminal-286970932-line-36)">Escape</text><text class="terminal-286970932-r2" x="122" y="898.4" textLength="195.2" clip-path="url(#terminal-286970932-line-36)">:&#160;Cancel/Go&#160;back</text><text class="terminal-286970932-r1" x="1464" y="898.4" textLength="12.2" clip-path="url(#terminal-286970932-line-36)">
</text><text class="terminal-286970932-r1" x="1464" y="922.8" textLength="12.2" clip-path="url(#terminal-286970932-line-37)">
</text><text class="terminal-286970932-r1" x="1464" y="947.2" textLength="12.2" clip-path="url(#terminal-286970932-line-38)">
</text><text class="terminal-286970932-r8" x="0" y="971.6" textLength="61" clip-path="url(#terminal-286970932-line-39)">&#160;esc&#160;</text><text class="terminal-286970932-r2" x="61" y="971.6" textLength="134.2" clip-path="url(#terminal-286970932-line-39)">Close&#160;Help&#160;</text><text class="terminal-286970932-r8" x="195.2" y="971.6" textLength="48.8" clip-path="url(#terminal-286970932-line-39)">&#160;^q&#160;</text><text class="terminal-286970932-r2" x="244" y="971.6" textLength="61" clip-path="url(#terminal-286970932-line-39)">Quit&#160;</text><text class="terminal-286970932-r8" x="305" y="971.6" textLength="48.8" clip-path="url(#terminal-286970932-line-39)">&#160;^t&#160;</text><text class="terminal-286970932-r2" x="353.8" y="971.6" textLength="158.6" clip-path="url(#terminal-286970932-line-39)">Toggle&#160;Theme&#160;</text><text class="terminal-286970932-r8" x="512.4" y="971.6" textLength="36.6" clip-path="url(#terminal-286970932-line-39)">&#160;?&#160;</text><text class="terminal-286970932-r2" x="549" y="971.6" textLength="61" clip-path="url(#terminal-286970932-line-39)">Help&#160;</text><text class="terminal-286970932-r9" x="1317.6" y="971.6" textLength="12.2" clip-path="url(#terminal-286970932-line-39)">▏</text><text class="terminal-286970932-r8" x="1329.8" y="971.6" textLength="24.4" clip-path="url(#terminal-286970932-line-39)">^p</text><text class="terminal-286970932-r2" x="1354.2" y="971.6" textLength="97.6" clip-path="url(#terminal-286970932-line-39)">&#160;palette</text>
    </g>
    </g>
</svg>
